<svg xmlns="http://www.w3.org/2000/svg" xmlns:xlink="http://www.w3.org/1999/xlink" width="257.7" height="258.3" viewBox="0 0 257.7 258.3"><defs><style>.cls-1{fill:#fff;}.cls-2{fill:#458bff;}.cls-3{fill:none;}.cls-4{clip-path:url(#clip-path);}</style><clipPath id="clip-path"><path class="cls-1" d="M120.2,231.2c-18.1-4.8-27-18-27-40.3V125.5l2.5,2.8.3.3c11.6,12.6,33.2,23.3,64.3,31.9,20.9,5.8,34,11.2,42.6,17.4,9.1,6.6,13.4,14.4,13.4,24.6,0,20.8-22.7,33.2-60.8,33.2-14.2,0-28-2.2-35.3-4.5M47.7,95.1v95c0,12.5,1.3,28.6,11.1,42.1C71.2,249.3,94.3,258,127.4,258h.9c6.7,0,12.4.1,16.9.1,3.3,0,6.2.1,8.7.1,31.4,0,57.7-5.7,76.1-16.4,18-10.5,27.5-25.2,27.5-42.7,0-27.5-22.3-45.5-74.6-60.3-38-11.2-56-19.9-56-38.6a23.06,23.06,0,0,1,.6-5.2Zm0-85V47.2H0V76.4H178.4A142.31,142.31,0,0,1,235.3,88l12-29c-18.1-7.5-42.1-11.7-66.2-11.7H93.2V0Z"/></clipPath></defs><title>logo footer 2</title><g id="Calque_2" data-name="Calque 2"><g id="Calque_1-2" data-name="Calque 1"><path class="cls-2" d="M27.3.5A27.14,27.14,0,0,0,.1,27.6h0V230.8A27.14,27.14,0,0,0,27.2,258H230.5a27.14,27.14,0,0,0,27.2-27.1h0V27.7A27.14,27.14,0,0,0,230.6.5H27.3Z"/><path class="cls-3" d="M27.3.5A27.14,27.14,0,0,0,.1,27.6h0V230.8A27.14,27.14,0,0,0,27.2,258H230.5a27.14,27.14,0,0,0,27.2-27.1h0V27.7A27.14,27.14,0,0,0,230.6.5H27.3Z"/><path class="cls-1" d="M120.2,231.2c-18.1-4.8-27-18-27-40.3V125.5l2.5,2.8.3.3c11.6,12.6,33.2,23.3,64.3,31.9,20.9,5.8,34,11.2,42.6,17.4,9.1,6.6,13.4,14.4,13.4,24.6,0,20.8-22.7,33.2-60.8,33.2-14.2,0-28-2.2-35.3-4.5M47.7,95.1v95c0,12.5,1.3,28.6,11.1,42.1C71.2,249.3,94.3,258,127.4,258h.9c6.7,0,12.4.1,16.9.1,3.3,0,6.2.1,8.7.1,31.4,0,57.7-5.7,76.1-16.4,18-10.5,27.5-25.2,27.5-42.7,0-27.5-22.3-45.5-74.6-60.3-38-11.2-56-19.9-56-38.6a23.06,23.06,0,0,1,.6-5.2Zm0-85V47.2H0V76.4H178.4A142.31,142.31,0,0,1,235.3,88l12-29c-18.1-7.5-42.1-11.7-66.2-11.7H93.2V0Z"/><g class="cls-4"><rect class="cls-1" width="257.5" height="258.3"/></g></g></g></svg>